<svg width="26" height="26" viewBox="0 0 26 26" fill="none" xmlns="http://www.w3.org/2000/svg">
<path d="M2.52472 12.5698C3.44452 14.6069 5.01101 16.8138 6.82226 18.625C8.75416 20.5569 10.8854 22.0869 12.8236 22.9323C13.8789 23.3928 14.8229 23.6231 15.6177 23.6231C16.4077 23.6231 17.05 23.395 17.5058 22.9389L19.3341 21.1113C19.8894 20.5553 19.8396 19.6015 19.2229 18.9844L16.529 16.2902C15.9116 15.6735 14.9571 15.624 14.4021 16.1793L13.5633 17.0182C13.3308 17.1921 11.8941 16.7495 10.2778 15.1332C8.6606 13.5163 8.21708 12.0787 8.39191 11.8484L9.2317 11.0086C9.78704 10.453 9.73727 9.49851 9.1205 8.88174L6.42599 6.18786C5.80859 5.57109 4.85477 5.521 4.29911 6.07698L2.47148 7.90461C1.55893 8.81685 1.57814 10.4737 2.52472 12.5698ZM3.36262 8.79543L5.19056 6.9678C5.20316 6.9552 5.22836 6.94764 5.26081 6.94764C5.332 6.94764 5.44004 6.98323 5.53549 7.07868L8.22937 9.77256C8.3686 9.91179 8.38057 10.0778 8.34056 10.1178L7.50077 10.9573C6.45686 12.0018 7.65922 14.2966 9.38668 16.024C10.2469 16.884 11.1929 17.5713 12.0503 17.9585C13.4615 18.596 14.1618 18.2016 14.4531 17.9096L15.2929 17.0702C15.3332 17.0298 15.4986 17.0421 15.6382 17.181L18.3317 19.8752C18.471 20.0145 18.4829 20.1802 18.4429 20.2202L16.615 22.0481C16.1078 22.5556 14.879 22.4545 13.3276 21.7772C11.5303 20.9932 9.5363 19.5571 7.71308 17.7342C6.00515 16.0263 4.53284 13.9545 3.67289 12.051C2.978 10.5128 2.86208 9.29596 3.36262 8.79543ZM23.4029 13.9662C23.4029 7.1338 17.8441 1.575 11.0118 1.575V2.835C17.1495 2.835 22.1429 7.82869 22.1429 13.9662H23.4029Z" fill="hsl(200, 100%, 45%)"/>
<path d="M3.36262 8.79543L5.19056 6.9678C5.20316 6.9552 5.22836 6.94764 5.26081 6.94764C5.332 6.94764 5.44004 6.98323 5.53549 7.07868L8.22937 9.77256C8.3686 9.91179 8.38057 10.0778 8.34056 10.1178L7.50077 10.9573C6.45686 12.0018 7.65922 14.2966 9.38668 16.024C10.2469 16.884 11.1929 17.5713 12.0503 17.9585C13.4615 18.596 14.1618 18.2016 14.4531 17.9096L15.2929 17.0702C15.3332 17.0298 15.4986 17.0421 15.6382 17.181L18.3317 19.8752C18.471 20.0145 18.4829 20.1802 18.4429 20.2202L16.615 22.0481C16.1078 22.5556 14.879 22.4545 13.3276 21.7772C11.5303 20.9932 9.5363 19.5571 7.71308 17.7342C6.00515 16.0263 4.53284 13.9545 3.67289 12.051C2.978 10.5128 2.86208 9.29596 3.36262 8.79543Z" fill="hsl(200, 100%, 45%)"/>
<path d="M11.2455 5.01669V6.27669C15.6146 6.27669 19.1693 9.83116 19.1693 14.2002H20.4293C20.4293 9.13627 16.3091 5.01669 11.2455 5.01669Z" fill="hsl(200, 100%, 45%)"/>
<path d="M15.9617 14.2002H17.2217C17.2217 10.9053 14.541 8.22401 11.2458 8.22401V9.48401C13.8461 9.48401 15.9617 11.5999 15.9617 14.2002Z" fill="hsl(200, 100%, 45%)"/>
</svg>
