<svg width="230" height="32" viewBox="0 0 259 36" fill="none" xmlns="http://www.w3.org/2000/svg">
<path d="M30.057 29.9734C33.3057 25.3194 35.4872 18.0475 35.8163 14.4116C34.4692 9.5617 29.5243 6.33298 25.2866 5.59803C20.4581 6.41249 12.2845 2.57293 11.1792 1.4676C10.2949 0.583343 7.72745 0.207144 6.55425 0.129578C0.224803 0.618248 -0.29101 9.43759 0.358611 13.6553C2.68561 10.7465 10.0453 10.4557 12.9735 10.6884C24.8703 12.4627 29.2813 23.9523 30.057 29.9734Z" fill="#80D7F9"/>
<path d="M10.7628 21.8657C15.5959 21.5096 18.4419 25.8934 18.8736 27.0569C15.325 25.3698 16.2267 35.8704 12.7362 35.8704C9.24567 35.8704 3.49092 26.4034 3.83997 25.8507C4.18902 25.2981 4.71719 22.3112 10.7628 21.8657Z" fill="#2DABEB"/>
<path d="M24.9439 5.51616C31.3432 7.14506 34.8822 12.1481 35.8517 14.446C36.7244 2.72376 33.5538 1.29847 31.3432 0.367667C29.5747 -0.376974 24.4785 1.04638 22.1515 1.85113C20.416 2.3941 18.5447 3.88726 24.9439 5.51616Z" fill="#B3E6F5"/>
<path d="M3.82003 26.0757C1.44649 21.1657 0.485233 15.6818 0.320404 13.5971C0.320404 11.9178 6.21939 9.20798 14.6024 10.2812C26.6446 11.8228 30.057 26.163 30.057 29.9734C29.0098 31.3405 25.0248 36.3727 22.8142 35.7328C21.0457 35.2208 20.1575 31.6799 19.9345 29.9734C19.2558 27.2683 16.6244 21.9045 11.5282 22.0907C6.43209 22.2769 4.26604 24.8249 3.82003 26.0757Z" fill="#60CAF4"/>
<path d="M78.1111 3H80.7467C81.4698 3 82.0903 3.28797 82.6076 3.8627C83.1231 4.43802 83.3823 5.08247 83.3823 5.79427V21.8181C83.3823 25.709 82.3228 28.3385 80.2039 29.7074C78.0839 31.0768 75.7846 31.7616 73.3037 31.7616C71.959 31.7616 70.6415 31.5278 69.3494 31.0631C68.0575 30.5983 67.0236 29.845 66.2488 28.8032C64.7493 26.7772 64 24.01 64 20.5033C64 17.052 64.7486 14.2859 66.2488 12.2029C67.7989 10.0663 69.7879 8.99863 72.2176 8.99863C73.5091 8.99863 74.6468 9.27337 75.6292 9.81983C76.6625 10.4775 77.49 11.3275 78.11 12.367L78.1111 3ZM69.2734 20.2568C69.2734 22.4487 69.6608 24.1188 70.4362 25.2695C71.2115 26.4202 72.322 26.9948 73.7699 26.9948C75.1652 26.9948 76.2507 26.4202 77.026 25.2695C77.7486 24.1188 78.1111 22.4487 78.1111 20.2568C78.1111 18.2844 77.7231 16.7231 76.9483 15.5724C76.1209 14.4776 75.0098 13.9295 73.6145 13.9295C72.2698 13.9295 71.2115 14.5048 70.4362 15.6549C69.6602 16.7514 69.2734 18.2844 69.2734 20.2568Z" fill="#4AC7B3"/>
<path d="M99.4495 24.6118H103.326C102.757 26.9131 101.671 28.6668 100.07 29.8715C98.4673 31.1322 96.4515 31.7611 94.0229 31.7611C91.077 31.7611 88.7766 30.748 87.1233 28.7202C85.4683 26.7484 84.642 23.927 84.642 20.2563C84.642 16.7507 85.4427 14.0106 87.0456 12.0387C88.6989 10.0122 90.9993 8.99792 93.9452 8.99792C97.0465 8.99792 99.4495 9.98386 101.155 11.9563C102.809 13.9835 103.636 16.8043 103.636 20.4204C103.636 20.6399 103.636 20.8316 103.636 20.9958C103.636 21.1592 103.636 21.2705 103.636 21.3239C103.636 21.5987 103.609 21.7898 103.559 21.8993H90.1463C90.1973 23.5983 90.5847 24.8576 91.3095 25.6794C91.9811 26.5566 92.9884 26.9942 94.3331 26.9942C95.2117 26.9942 95.9609 26.8037 96.5814 26.4195C96.7363 26.3655 96.878 26.2693 97.0079 26.1322C97.1366 25.9957 97.2796 25.8441 97.4344 25.6801C97.4854 25.516 97.6794 25.2971 98.0158 25.0224C98.3504 24.7495 98.829 24.6118 99.4495 24.6118ZM90.1458 18.202H98.0538C97.9494 16.7231 97.5887 15.6278 96.9682 14.9154C96.2955 14.1489 95.3404 13.7647 94.0995 13.7647C92.9617 13.7647 92.0321 14.1489 91.3084 14.9154C90.5847 15.683 90.1968 16.7784 90.1458 18.202Z" fill="#4AC7B3"/>
<path d="M123.269 31.3504H120.556C119.781 31.3504 119.147 31.0906 118.656 30.5695C118.164 30.05 117.919 29.378 117.919 28.5561V17.3802C117.919 16.0648 117.544 15.1077 116.796 14.5042C116.046 13.9018 115.206 13.6 114.276 13.6C113.346 13.6 112.518 13.9018 111.795 14.5042C111.071 15.1077 110.71 16.0655 110.71 17.3802V31.3499H105.283V18.5303C105.283 14.806 106.2 12.3135 108.035 11.0522C109.869 9.79213 111.898 9.10865 114.121 8.99792C116.395 8.99792 118.488 9.62798 120.4 10.8881C122.312 12.1493 123.269 14.6965 123.269 18.5303V31.3504Z" fill="#4AC7B3"/>
<path d="M134.064 31.3504C132.358 31.4599 130.509 31.4327 128.521 31.268C126.531 31.1038 125.536 29.762 125.536 27.2414V3.08173H128.327C128.998 3.08173 129.593 3.35645 130.11 3.90293C130.626 4.45121 130.885 5.10889 130.885 5.87541V9.57265H134.063V10.7233C134.063 11.5451 133.804 12.2166 133.289 12.7367C132.771 13.2579 132.151 13.5175 131.428 13.5175H130.885V25.6794C130.885 26.6119 131.401 27.0759 132.435 27.0759H134.063L134.064 31.3504Z" fill="#4AC7B3"/>
<path d="M148.503 30.4462C147.417 31.0498 146.267 31.4184 145.052 31.556C143.837 31.6925 142.766 31.7616 141.835 31.7616C139.975 31.7616 138.346 31.2272 136.952 30.1588C135.556 29.0912 134.858 27.3237 134.858 24.8589C134.858 22.5582 135.49 20.9146 136.758 19.9287C138.024 18.942 139.639 18.285 141.604 17.9568C141.861 17.9568 142.172 17.9159 142.533 17.8334C142.895 17.7511 143.309 17.6832 143.774 17.6279C146.048 17.299 147.185 16.5878 147.185 15.4907C147.185 14.6695 146.784 14.135 145.985 13.8885C145.182 13.6421 144.446 13.5189 143.774 13.5189C143.05 13.5189 142.405 13.6294 141.837 13.8476C141.266 14.067 140.854 14.4784 140.595 15.0807H135.401C135.607 13.383 136.332 11.9865 137.572 10.8892C138.968 9.62911 140.957 8.99921 143.541 8.99921C146.435 8.99921 148.606 9.5204 150.053 10.5605C151.552 11.657 152.302 13.19 152.302 15.1618V22.6405C152.302 24.8323 151.926 26.544 151.178 27.7764C150.427 29.0087 149.536 29.8998 148.503 30.4462ZM147.262 20.3391C146.538 20.7233 145.53 21.0786 144.238 21.4069L142.456 21.8181C141.525 22.0928 140.852 22.4487 140.44 22.8863C140.077 23.49 139.897 24.0924 139.897 24.6942C139.897 25.516 140.13 26.1736 140.595 26.6666C141.06 27.1055 141.731 27.3237 142.611 27.3237C144.058 27.3237 145.195 26.8861 146.021 26.0089C146.848 25.1329 147.263 23.9277 147.263 22.3929L147.262 20.3391Z" fill="#4AC7B3"/>
<path d="M154.103 3.08234H156.893C157.617 3.08234 158.238 3.34326 158.754 3.86267C159.271 4.3839 159.529 5.02775 159.529 5.79426V31.351H154.103V3.08234Z" fill="#4AC7B3"/>
<path d="M174.768 15.6549C173.994 14.5048 172.933 13.9294 171.59 13.9294C170.143 13.9294 169.031 14.4776 168.257 15.5724C167.482 16.6689 167.093 18.1755 167.093 20.0926V31.351H161.821V3.08295H164.458C165.18 3.08295 165.802 3.35769 166.317 3.90415C166.833 4.45243 167.093 5.11011 167.093 5.87661V12.3682C168.024 10.7252 169.342 9.68452 171.047 9.24563C172.752 8.8086 174.381 8.91732 175.931 9.57451C177.377 10.2321 178.592 11.2734 179.574 12.6971C180.556 14.1225 181.049 16.0943 181.049 18.6138V31.3516H175.855V20.0104C175.855 19.1886 175.79 18.4364 175.66 17.7505C175.531 17.0663 175.234 16.3678 174.768 15.6549Z" fill="#2DABEB"/>
<path d="M197.116 24.6118H200.991C200.421 26.9131 199.336 28.6668 197.736 29.8715C196.132 31.1322 194.117 31.7611 191.688 31.7611C188.743 31.7611 186.443 30.748 184.789 28.7202C183.133 26.7484 182.306 23.927 182.306 20.2563C182.306 16.7507 183.107 14.0106 184.711 12.0387C186.365 10.0122 188.665 8.99792 191.61 8.99792C194.711 8.99792 197.116 9.98386 198.819 11.9563C200.474 13.9835 201.302 16.8043 201.302 20.4204C201.302 20.6399 201.302 20.8316 201.302 20.9958C201.302 21.1592 201.302 21.2705 201.302 21.3239C201.302 21.5987 201.275 21.7898 201.224 21.8993H187.812C187.863 23.5983 188.25 24.8576 188.974 25.6794C189.647 26.5566 190.654 26.9942 191.999 26.9942C192.876 26.9942 193.626 26.8037 194.247 26.4195C194.402 26.3655 194.543 26.2693 194.673 26.1322C194.802 25.9957 194.944 25.8441 195.1 25.6801C195.151 25.516 195.344 25.2971 195.68 25.0224C196.017 24.7495 196.494 24.6118 197.116 24.6118ZM187.812 18.202H195.72C195.615 16.7231 195.254 15.6278 194.634 14.9154C193.961 14.1489 193.005 13.7647 191.766 13.7647C190.629 13.7647 189.698 14.1489 188.974 14.9154C188.25 15.683 187.863 16.7784 187.812 18.202Z" fill="#2DABEB"/>
<path d="M216.128 30.4462C215.041 31.0498 213.892 31.4184 212.678 31.556C211.463 31.6925 210.391 31.7616 209.46 31.7616C207.599 31.7616 205.972 31.2272 204.576 30.1588C203.18 29.0912 202.483 27.3237 202.483 24.8589C202.483 22.5582 203.115 20.9146 204.383 19.9287C205.648 18.942 207.263 18.285 209.228 17.9568C209.487 17.9568 209.796 17.9159 210.159 17.8334C210.519 17.7511 210.935 17.6832 211.4 17.6279C213.673 17.299 214.811 16.5878 214.811 15.4907C214.811 14.6695 214.41 14.135 213.609 13.8885C212.807 13.6421 212.072 13.5189 211.4 13.5189C210.676 13.5189 210.029 13.6294 209.461 13.8476C208.892 14.067 208.479 14.4784 208.221 15.0807H203.026C203.233 13.383 203.957 11.9865 205.198 10.8892C206.594 9.62911 208.581 8.99921 211.166 8.99921C214.061 8.99921 216.231 9.5204 217.679 10.5605C219.176 11.657 219.927 13.19 219.927 15.1618V22.6405C219.927 24.8323 219.551 26.544 218.802 27.7764C218.053 29.0087 217.16 29.8998 216.128 30.4462ZM214.886 20.3391C214.163 20.7233 213.154 21.0786 211.864 21.4069L210.08 21.8181C209.149 22.0928 208.477 22.4487 208.064 22.8863C207.701 23.49 207.52 24.0924 207.52 24.6942C207.52 25.516 207.753 26.1736 208.218 26.6666C208.684 27.1055 209.355 27.3237 210.235 27.3237C211.682 27.3237 212.818 26.8861 213.646 26.0089C214.472 25.1329 214.886 23.9277 214.886 22.3929V20.3391Z" fill="#2DABEB"/>
<path d="M221.729 3.08234H224.519C225.243 3.08234 225.863 3.34326 226.38 3.86267C226.895 4.3839 227.155 5.02775 227.155 5.79426V31.351H221.729V3.08234Z" fill="#2DABEB"/>
<path d="M238.027 31.3504C236.322 31.4599 234.473 31.4327 232.485 31.268C230.494 31.1038 229.499 29.762 229.499 27.2414V3.08173H232.29C232.962 3.08173 233.556 3.35645 234.073 3.90293C234.589 4.45121 234.849 5.10889 234.849 5.87541V9.57265H238.027V10.7233C238.027 11.5451 237.769 12.2166 237.252 12.7367C236.735 13.2579 236.115 13.5175 235.391 13.5175H234.849V25.6794C234.849 26.6119 235.365 27.0759 236.4 27.0759H238.027V31.3504Z" fill="#2DABEB"/>
<path d="M252.234 15.6549C251.458 14.5048 250.398 13.9294 249.054 13.9294C247.607 13.9294 246.497 14.4776 245.721 15.5724C244.945 16.6689 244.557 18.1755 244.557 20.0926V31.351H239.286V3.08295H241.922C242.646 3.08295 243.266 3.35769 243.781 3.90415C244.298 4.45243 244.557 5.11011 244.557 5.87661V12.3682C245.488 10.7252 246.806 9.68452 248.513 9.24563C250.216 8.8086 251.845 8.91732 253.396 9.57451C254.841 10.2321 256.056 11.2734 257.04 12.6971C258.021 14.1225 258.513 16.0943 258.513 18.6138V31.3516H253.318V20.0104C253.318 19.1886 253.254 18.4364 253.125 17.7505C252.995 17.0663 252.698 16.3678 252.234 15.6549Z" fill="#2DABEB"/>
</svg>
