<svg width="27" height="30" viewBox="0 0 27 30" fill="none" xmlns="http://www.w3.org/2000/svg">
<path d="M25.984 7.93518C25.9844 7.74105 25.9408 7.5489 25.856 7.37057C25.7711 7.19224 25.6468 7.03152 25.4906 6.8983C25.3345 6.76508 25.1498 6.66218 24.948 6.59596C24.7462 6.52973 24.5316 6.50158 24.3173 6.51322H24.0186C22.0709 6.53229 20.1536 6.07614 18.4684 5.1928C16.7833 4.30945 15.3927 3.03158 14.4429 1.49371V1.4084C14.3834 1.33091 14.3149 1.2594 14.2385 1.1951C14.1679 1.12555 14.0888 1.06353 14.0027 1.01025L13.8926 0.924931H13.7354L13.3894 0.825394H13.0907H12.8077C12.699 0.840613 12.5932 0.869323 12.4932 0.910711H12.336H12.2416C12.1559 0.964544 12.0769 1.02651 12.0058 1.09557C11.9247 1.16109 11.8557 1.23789 11.8014 1.32308C11.7661 1.34784 11.7344 1.37651 11.707 1.4084C10.7554 2.98136 9.35154 4.29264 7.6439 5.20371C5.93626 6.11477 3.98821 6.59177 2.00557 6.58432H1.80116C1.58467 6.55848 1.36459 6.5737 1.15496 6.62902C0.945325 6.68434 0.750734 6.77855 0.583582 6.90563C0.416429 7.03272 0.280381 7.1899 0.184106 7.36715C0.0878311 7.54441 0.0334405 7.73786 0.0243995 7.93518C0.0243995 9.35714 0.0243995 10.708 0.0243995 12.2011V12.7983C-0.172801 16.4067 0.953453 19.973 3.22815 22.9429C5.50284 25.9129 8.79859 28.1202 12.6033 29.2219C12.7357 29.2577 12.8741 29.2721 13.0121 29.2645C13.1426 29.2784 13.2746 29.2784 13.4052 29.2645C17.2105 28.1627 20.511 25.9621 22.8003 23.0005C25.0895 20.0389 26.2411 16.4798 26.0784 12.8694C26.0784 11.1061 26.0784 9.48512 25.984 7.93518ZM19.6946 13.2675L12.4303 19.837C12.2649 19.9899 12.0593 20.1024 11.8328 20.164C11.5502 20.3894 11.1875 20.5156 10.8108 20.5195C10.3983 20.5179 10.003 20.3698 9.71012 20.1071L6.5654 17.2632C6.40081 17.1357 6.26713 16.9789 6.17275 16.8025C6.07837 16.6261 6.02533 16.4339 6.01697 16.2381C6.0086 16.0422 6.04509 15.847 6.12414 15.6645C6.20319 15.482 6.3231 15.3163 6.47633 15.1777C6.62956 15.0391 6.81282 14.9307 7.01459 14.8592C7.21636 14.7877 7.4323 14.7547 7.64884 14.7623C7.86539 14.7699 8.07786 14.8178 8.27294 14.9032C8.46801 14.9885 8.64147 15.1094 8.78243 15.2583L10.8579 17.1352L17.4147 11.2057C17.7155 10.9727 18.1024 10.851 18.4981 10.8648C18.8938 10.8786 19.2692 11.027 19.5492 11.2802C19.8293 11.5335 19.9933 11.873 20.0086 12.2308C20.0239 12.5887 19.8893 12.9386 19.6317 13.2106L19.6946 13.2675Z" fill="#2DABEB" fill-opacity="0.85"/>
</svg>
