<svg width="617" height="615" viewBox="0 0 617 615" fill="none" xmlns="http://www.w3.org/2000/svg">
<path d="M514.157 513C570 433 607.5 308 613.157 245.5C590 162.133 505 106.633 432.157 94C349.157 108 208.657 42 189.657 23C174.457 7.8 130.323 1.33333 110.157 0C1.3568 8.4 -7.50976 160 3.65691 232.5C43.6569 182.5 170.167 177.5 220.5 181.5C425 212 500.824 409.5 514.157 513Z" fill="#80D7F9"/>
<path d="M182.5 373.633C265.579 367.512 314.5 442.867 321.921 462.867C260.921 433.867 276.421 614.366 216.421 614.366C156.421 614.366 57.5001 451.633 63.5001 442.133C69.5001 432.633 78.5789 381.291 182.5 373.633Z" fill="#2DABEB"/>
<path d="M426.266 92.5922C536.266 120.592 597.099 206.592 613.766 246.092C628.766 44.5922 574.266 20.0922 536.266 4.09218C505.866 -8.70782 418.266 15.7588 378.266 29.5922C348.432 38.9255 316.266 64.5922 426.266 92.5922Z" fill="#B3E6F5"/>
<path d="M63.1568 446C22.3568 361.6 5.83333 267.333 3 231.5C3 202.633 104.401 156.052 248.5 174.5C455.5 201 514.157 447.5 514.157 513C496.157 536.5 427.657 623 389.657 612C359.257 603.2 343.99 542.333 340.157 513C328.49 466.5 283.257 374.3 195.657 377.5C108.057 380.7 70.8235 424.5 63.1568 446Z" fill="#60CAF4"/>
</svg>
