<svg width="35" height="40" viewBox="0 0 35 40" fill="none" xmlns="http://www.w3.org/2000/svg">
<path d="M22.8136 10.3063C21.4497 10.3944 15.6743 11.6462 14.2222 11.9702C13.6313 11.7239 13.0636 11.4376 12.5244 11.1142C11.8183 10.7098 11.2086 10.3607 10.4646 10.3099C9.315 10.2312 8.15952 10.3731 7.08038 10.7255C6.00124 11.0779 5.02498 11.6321 4.22106 12.3487C3.41715 13.0653 2.80535 13.9266 2.42919 14.8714C2.05303 15.8162 1.92177 16.8213 2.04474 17.8151C2.51055 21.4889 4.09863 28.7909 9.50358 36.418C9.64155 36.6124 9.84244 36.7674 10.0813 36.8637C10.3201 36.9599 10.5863 36.9932 10.8468 36.9593C11.1072 36.9255 11.3505 36.826 11.5462 36.6732C11.7419 36.5204 11.8815 36.3212 11.9475 36.1002L12.5106 34.209C13.0862 32.2803 14.2242 30.5124 15.8155 29.0749L16.0034 28.9052C16.1095 28.8096 16.2549 28.7544 16.4079 28.7515C16.5609 28.7487 16.709 28.7985 16.8197 28.89L17.0471 29.0785C18.7876 30.5221 20.0463 32.3461 20.6903 34.3581L21.2628 36.1471C21.3306 36.3663 21.4717 36.5631 21.6685 36.7127C21.8652 36.8623 22.1087 36.9581 22.3682 36.9879C22.433 36.9959 22.4985 36.9999 22.564 37C22.7925 37.0004 23.0173 36.9496 23.2164 36.8523C23.4155 36.7551 23.5822 36.6148 23.7001 36.4452C29.1225 28.8032 30.7132 21.489 31.1791 17.8086C31.3029 16.8189 31.1741 15.8176 30.8017 14.8758C30.4293 13.9341 29.8225 13.0748 29.0243 12.3589C28.2261 11.643 27.256 11.088 26.1827 10.7333C25.1094 10.3786 23.9593 10.2328 22.8138 10.3063H22.8136ZM29.7828 17.676C29.3321 21.2375 27.7967 28.3015 22.5776 35.7028L22.0432 34.0328C21.3317 31.8096 19.941 29.7942 18.0178 28.1991L17.7904 28.0105C17.4106 27.6966 16.9029 27.5257 16.3782 27.5354C15.8535 27.545 15.3545 27.7343 14.9904 28.0619L14.8024 28.2315C13.0442 29.82 11.7869 31.7737 11.1511 33.9048L10.6244 35.6733C5.42417 28.2877 3.89166 21.2374 3.44095 17.6821C3.34054 16.8664 3.44875 16.0415 3.75788 15.2661C4.06701 14.4908 4.56947 13.7839 5.22951 13.196C5.88955 12.608 6.69097 12.1533 7.57676 11.8642C8.46256 11.5751 9.41097 11.4587 10.3545 11.5233C10.7371 11.5495 11.1843 11.8055 11.7501 12.1297C13.3063 13.0208 15.658 14.3675 21.0148 13.7871C21.1068 13.7777 21.1957 13.7526 21.2765 13.7133C21.3572 13.674 21.4282 13.6212 21.4853 13.558C21.5424 13.4948 21.5846 13.4224 21.6093 13.3451C21.634 13.2677 21.6408 13.1869 21.6293 13.1072C21.6178 13.0275 21.5882 12.9506 21.5423 12.8809C21.4964 12.8112 21.435 12.7501 21.3617 12.701C21.2884 12.6519 21.2046 12.6159 21.1152 12.5951C21.0257 12.5742 20.9324 12.5688 20.8406 12.5794C19.2774 12.7487 18.0101 12.7436 16.9603 12.6306C19.2521 12.146 22.1207 11.5716 22.9182 11.5199C23.8581 11.4597 24.8018 11.5794 25.6824 11.8705C26.563 12.1616 27.359 12.6169 28.014 13.2043C28.669 13.7917 29.167 14.4967 29.4727 15.2694C29.7784 16.0421 29.8843 16.8636 29.7829 17.6757L29.7828 17.676ZM24.4515 5.11905C24.2653 5.11905 24.0867 5.18317 23.955 5.2973C23.8233 5.41144 23.7494 5.56624 23.7494 5.72764V6.48839H22.9594C22.7732 6.48839 22.5946 6.55251 22.4629 6.66664C22.3312 6.78078 22.2572 6.93557 22.2572 7.09698C22.2572 7.25839 22.3312 7.41319 22.4629 7.52733C22.5946 7.64146 22.7732 7.70558 22.9594 7.70558H23.7494V8.39025C23.7494 8.55166 23.8233 8.70646 23.955 8.82059C24.0867 8.93472 24.2653 8.99884 24.4515 8.99884C24.6378 8.99884 24.8164 8.93472 24.9481 8.82059C25.0797 8.70646 25.1537 8.55166 25.1537 8.39025V7.70558H26.0315C26.2177 7.70558 26.3963 7.64146 26.528 7.52733C26.6597 7.41319 26.7336 7.25839 26.7336 7.09698C26.7336 6.93557 26.6597 6.78078 26.528 6.66664C26.3963 6.55251 26.2177 6.48839 26.0315 6.48839H25.1537V5.72764C25.1537 5.56624 25.0797 5.41144 24.9481 5.2973C24.8164 5.18317 24.6378 5.11905 24.4515 5.11905ZM31.2978 3.36934H30.4201V2.6086C30.4201 2.44719 30.3461 2.29239 30.2144 2.17825C30.0827 2.06412 29.9041 2 29.7179 2C29.5317 2 29.3531 2.06412 29.2214 2.17825C29.0897 2.29239 29.0157 2.44719 29.0157 2.6086V3.36934H28.2258C28.0395 3.36934 27.8609 3.43346 27.7293 3.54759C27.5976 3.66173 27.5236 3.81652 27.5236 3.97793C27.5236 4.13934 27.5976 4.29414 27.7293 4.40828C27.8609 4.52241 28.0395 4.58653 28.2258 4.58653H29.0157V5.2712C29.0157 5.43261 29.0897 5.58741 29.2214 5.70154C29.3531 5.81567 29.5317 5.87979 29.7179 5.87979C29.9041 5.87979 30.0827 5.81567 30.2144 5.70154C30.3461 5.58741 30.4201 5.43261 30.4201 5.2712V4.58653H31.2978C31.484 4.58653 31.6627 4.52241 31.7943 4.40828C31.926 4.29414 32 4.13934 32 3.97793C32 3.81652 31.926 3.66173 31.7943 3.54759C31.6627 3.43346 31.484 3.36934 31.2978 3.36934ZM31.2978 8.77062H30.4201V8.00988C30.4201 7.84847 30.3461 7.69367 30.2144 7.57954C30.0827 7.4654 29.9041 7.40128 29.7179 7.40128C29.5317 7.40128 29.3531 7.4654 29.2214 7.57954C29.0897 7.69367 29.0157 7.84847 29.0157 8.00988V8.77062H28.2258C28.0395 8.77062 27.8609 8.83474 27.7293 8.94887C27.5976 9.06301 27.5236 9.21781 27.5236 9.37922C27.5236 9.54063 27.5976 9.69542 27.7293 9.80956C27.8609 9.92369 28.0395 9.98781 28.2258 9.98781H29.0157V10.6725C29.0157 10.8339 29.0897 10.9887 29.2214 11.1028C29.3531 11.217 29.5317 11.2811 29.7179 11.2811C29.9041 11.2811 30.0827 11.217 30.2144 11.1028C30.3461 10.9887 30.4201 10.8339 30.4201 10.6725V9.98781H31.2978C31.484 9.98781 31.6627 9.92369 31.7943 9.80956C31.926 9.69542 32 9.54063 32 9.37922C32 9.21781 31.926 9.06301 31.7943 8.94887C31.6627 8.83474 31.484 8.77062 31.2978 8.77062Z" fill="white"/>
</svg>
